<?xml version="1.0" encoding="UTF-8" standalone="no"?>
<!DOCTYPE svg PUBLIC "-//W3C//DTD SVG 1.1//EN" "http://www.w3.org/Graphics/SVG/1.1/DTD/svg11.dtd">
<svg width="100%" height="100%" viewBox="0 0 2481 591" version="1.1" xmlns="http://www.w3.org/2000/svg" xmlns:xlink="http://www.w3.org/1999/xlink" xml:space="preserve" xmlns:serif="http://www.serif.com/" style="fill-rule:evenodd;clip-rule:evenodd;stroke-linejoin:round;stroke-miterlimit:2;">
    <g transform="matrix(13.952,0,0,13.952,-360.237,83.229)">
        <path d="M65.484,18.521C65.765,18.908 66.304,18.994 66.681,18.71C67.043,18.443 67.132,17.904 66.88,17.535C66.619,17.15 66.064,17.054 65.679,17.326C65.287,17.603 65.203,18.131 65.484,18.521ZM64.296,19.35C63.562,18.314 63.796,16.895 64.832,16.15C65.861,15.406 67.357,15.664 68.068,16.707C68.781,17.747 68.521,19.192 67.494,19.911C66.457,20.637 65.031,20.385 64.296,19.35Z" style="fill:rgb(69,182,73);"/>
    </g>
    <g transform="matrix(13.952,0,0,13.952,-360.237,83.229)">
        <path d="M70.043,22.154C69.605,22.467 69.113,22.424 68.835,22.046C68.57,21.684 68.685,21.148 69.093,20.852C69.513,20.55 70.023,20.604 70.298,20.981C70.584,21.372 70.48,21.841 70.043,22.154Z" style="fill:rgb(69,182,73);"/>
    </g>
    <g transform="matrix(13.952,0,0,13.952,-360.237,83.229)">
        <path d="M61.89,23.168C62.324,22.871 62.824,22.937 63.084,23.328C63.337,23.711 63.207,24.217 62.781,24.506C62.357,24.791 61.832,24.717 61.58,24.338C61.32,23.946 61.447,23.47 61.89,23.168Z" style="fill:rgb(69,182,73);"/>
    </g>
    <g transform="matrix(13.952,0,0,13.952,-360.237,83.229)">
        <path d="M67.277,26.252C67.558,26.64 68.097,26.724 68.476,26.439C68.835,26.172 68.927,25.634 68.673,25.264C68.412,24.88 67.857,24.782 67.472,25.054C67.082,25.33 66.996,25.86 67.277,26.252ZM66.087,27.08C65.355,26.043 65.591,24.625 66.625,23.881C67.654,23.137 69.15,23.394 69.863,24.435C70.574,25.475 70.312,26.922 69.287,27.641C68.25,28.365 66.824,28.116 66.087,27.08Z" style="fill:rgb(69,182,73);"/>
    </g>
    <g transform="matrix(13.952,0,0,13.952,-360.237,83.229)">
        <path d="M44.993,12.051L43.53,9.518L41.797,10.518L43.252,13.037L44.993,12.051Z" style="fill:rgb(241,104,35);fill-rule:nonzero;"/>
    </g>
    <g transform="matrix(13.952,0,0,13.952,-360.237,83.229)">
        <path d="M34.732,24.656L31.889,23.965L31.417,25.909L34.245,26.598L34.732,24.656Z" style="fill:rgb(241,104,35);fill-rule:nonzero;"/>
    </g>
    <g transform="matrix(13.952,0,0,13.952,-360.237,83.229)">
        <path d="M38.447,17.409L36.094,15.67L34.905,17.278L37.245,19.009L38.447,17.409Z" style="fill:rgb(241,104,35);fill-rule:nonzero;"/>
    </g>
    <g transform="matrix(13.952,0,0,13.952,-360.237,83.229)">
        <path d="M65.08,3.246C61.746,1.774 58.064,0.951 54.19,0.951C50.337,0.951 46.673,1.766 43.353,3.223L54.225,22.088L65.08,3.246Z" style="fill:rgb(241,104,35);fill-rule:nonzero;"/>
    </g>
    <g transform="matrix(13.952,0,0,13.952,-360.237,83.229)">
        <path d="M49.104,5.109L48.642,5.109L48.642,4.319L51.529,4.319C51.864,4.319 52.005,4.468 52.005,4.802L52.005,5.571L51.167,5.571L51.167,5.265C51.167,5.166 51.11,5.109 51.01,5.109L50.036,5.109L50.036,6.538L51.65,6.538L51.65,7.327L50.036,7.327L50.036,9.368L49.104,9.368L49.104,5.109Z" style="fill:white;fill-rule:nonzero;"/>
    </g>
    <g transform="matrix(13.952,0,0,13.952,-360.237,83.229)">
        <path d="M54.626,6.003C54.626,5.709 54.416,5.494 54.134,5.494C53.852,5.494 53.636,5.698 53.636,5.961C53.636,6.231 53.9,6.538 54.062,6.741C54.332,6.58 54.626,6.345 54.626,6.003ZM53.138,8.228C53.138,8.667 53.504,9.02 53.96,9.02C54.326,9.02 54.637,8.84 54.866,8.486L53.882,7.298C53.528,7.479 53.138,7.791 53.138,8.228ZM55.441,8.402L56.269,9.368L55.609,9.368L55.153,8.828C54.853,9.253 54.434,9.458 53.906,9.458C53.192,9.458 52.605,9.008 52.605,8.252C52.605,7.653 53.09,7.197 53.606,6.969C53.276,6.567 53.144,6.286 53.144,5.98C53.144,5.446 53.552,5.074 54.14,5.074C54.715,5.074 55.118,5.44 55.118,5.961C55.118,6.477 54.763,6.843 54.332,7.071L55.111,8.024C55.189,7.833 55.237,7.586 55.25,7.347L55.735,7.347C55.717,7.743 55.609,8.121 55.441,8.402Z" style="fill:white;fill-rule:nonzero;"/>
    </g>
    <g transform="matrix(13.952,0,0,13.952,-360.237,83.229)">
        <path d="M58.029,5.109L57.253,5.109C57.147,5.109 57.097,5.166 57.097,5.265L57.097,5.571L56.28,5.571L56.28,4.774C56.28,4.44 56.393,4.319 56.727,4.319L60.254,4.319C60.588,4.319 60.71,4.44 60.71,4.774L60.71,5.571L59.884,5.571L59.884,5.265C59.884,5.166 59.835,5.109 59.728,5.109L58.96,5.109L58.96,9.368L58.029,9.368L58.029,5.109Z" style="fill:white;fill-rule:nonzero;"/>
    </g>
    <g transform="matrix(13.952,0,0,13.952,-360.237,83.229)">
        <path d="M54.685,28.857L46.324,14.375L44.591,15.375L51.627,27.561L42.128,22.434L41.179,24.193L50.124,29.021L29.139,29.021C29.502,19.82 34.848,11.879 42.545,7.824L41.547,6.095C32.974,10.643 27.12,19.659 27.12,30.021L27.12,31.022L53.608,31.022L54.685,28.857Z" style="fill:rgb(69,182,73);fill-rule:nonzero;"/>
    </g>
    <g transform="matrix(13.952,0,0,13.952,-360.237,83.229)">
        <path d="M65.378,12.709C70.959,16.306 74.498,22.402 74.849,29.021L55.96,29.021L65.378,12.709ZM66.873,6.115L65.875,7.845C73.552,11.906 78.878,19.837 79.242,29.021L76.849,29.021C76.478,21.359 72.218,14.313 65.531,10.448L65.521,10.465L64.683,9.939L52.501,31.022L81.261,31.022L81.261,30.021C81.261,19.676 75.425,10.671 66.873,6.115Z" style="fill:rgb(241,104,35);fill-rule:nonzero;"/>
    </g>
    <g transform="matrix(15.0312,0,0,15.0312,834.503,-351.248)">
        <path d="M1.434,40.149L0,40.149L0,37.7L8.958,37.7C9.995,37.7 10.436,38.165 10.436,39.202L10.436,41.584L7.833,41.584L7.833,40.635C7.833,40.327 7.656,40.149 7.347,40.149L4.325,40.149L4.325,44.584L9.333,44.584L9.333,47.034L4.325,47.034L4.325,53.366L1.434,53.366L1.434,40.149Z" style="fill:rgb(69,182,73);fill-rule:nonzero;"/>
    </g>
    <g transform="matrix(15.0312,0,0,15.0312,834.503,-351.248)">
        <path d="M15.271,51.491C16.816,51.491 17.853,49.903 17.853,48.534L17.853,48.225L17.345,48.225C15.889,48.225 13.573,48.446 13.573,49.991C13.573,50.741 14.146,51.491 15.271,51.491ZM17.478,46.305L17.831,46.305L17.831,46.151C17.831,44.606 17.191,44.01 15.756,44.01C15.25,44.01 14.256,44.143 14.256,44.76L14.256,45.356L11.63,45.356L11.63,44.165C11.63,42.092 14.61,41.848 15.691,41.848C19.53,41.848 20.633,43.768 20.633,46.329L20.633,50.52C20.633,50.829 20.809,51.004 21.119,51.004L22.001,51.004L22.001,53.366L19.463,53.366C18.426,53.366 18.051,52.793 18.051,52.131L18.051,51.645L18.007,51.645C18.03,51.645 17.058,53.631 14.521,53.631C12.513,53.631 10.793,52.374 10.793,50.278C10.793,46.504 15.646,46.305 17.478,46.305Z" style="fill:rgb(69,182,73);fill-rule:nonzero;"/>
    </g>
    <g transform="matrix(15.0312,0,0,15.0312,834.503,-351.248)">
        <path d="M24.167,49.791C24.167,49.791 25.601,51.446 27.543,51.446C28.38,51.446 29.043,51.094 29.043,50.344C29.043,48.754 23.129,48.776 23.129,45.137C23.129,42.885 25.16,41.848 27.476,41.848C29.021,41.848 31.425,42.356 31.425,44.188L31.425,45.356L28.976,45.356L28.976,44.805C28.976,44.276 28.161,44.01 27.543,44.01C26.572,44.01 25.887,44.364 25.887,45.026C25.887,46.791 31.845,46.438 31.845,50.188C31.845,52.307 29.969,53.631 27.52,53.631C24.431,53.631 22.842,51.624 22.842,51.624L24.167,49.791Z" style="fill:rgb(69,182,73);fill-rule:nonzero;"/>
    </g>
    <g transform="matrix(15.0312,0,0,15.0312,834.503,-351.248)">
        <path d="M34.319,44.342L32.863,44.342L32.863,42.114L34.407,42.114L34.407,39.047L37.121,39.047L37.121,42.114L39.68,42.114L39.68,44.342L37.121,44.342L37.121,48.887C37.121,50.741 38.577,51.004 39.372,51.004C39.68,51.004 39.878,50.961 39.878,50.961L39.878,53.411C39.878,53.411 39.526,53.477 38.997,53.477C37.429,53.477 34.319,53.012 34.319,49.241L34.319,44.342Z" style="fill:rgb(69,182,73);fill-rule:nonzero;"/>
    </g>
    <g transform="matrix(15.0312,0,0,15.0312,834.503,-351.248)">
        <path d="M48.938,44.387C48.938,43.602 48.377,43.026 47.625,43.026C46.873,43.026 46.296,43.571 46.296,44.274C46.296,44.995 47.001,45.811 47.433,46.356C48.153,45.922 48.938,45.299 48.938,44.387ZM44.968,50.325C44.968,51.493 45.944,52.438 47.161,52.438C48.137,52.438 48.969,51.957 49.578,51.014L46.953,47.844C46.008,48.325 44.968,49.157 44.968,50.325ZM51.115,50.79L53.324,53.366L51.563,53.366L50.346,51.926C49.545,53.063 48.425,53.606 47.017,53.606C45.112,53.606 43.543,52.407 43.543,50.389C43.543,48.788 44.84,47.573 46.216,46.963C45.336,45.891 44.984,45.139 44.984,44.323C44.984,42.899 46.073,41.905 47.641,41.905C49.177,41.905 50.251,42.881 50.251,44.274C50.251,45.651 49.306,46.627 48.153,47.235L50.234,49.78C50.442,49.268 50.57,48.612 50.602,47.971L51.899,47.971C51.851,49.028 51.563,50.038 51.115,50.79Z" style="fill:rgb(69,182,73);fill-rule:nonzero;"/>
    </g>
    <g transform="matrix(15.0312,0,0,15.0312,834.503,-351.248)">
        <path d="M58.81,40.149L56.405,40.149C56.074,40.149 55.919,40.327 55.919,40.635L55.919,41.584L53.382,41.584L53.382,39.112C53.382,38.077 53.735,37.7 54.772,37.7L65.716,37.7C66.753,37.7 67.128,38.077 67.128,39.112L67.128,41.584L64.569,41.584L64.569,40.635C64.569,40.327 64.415,40.149 64.084,40.149L61.701,40.149L61.701,53.366L58.81,53.366L58.81,40.149Z" style="fill:rgb(241,104,36);fill-rule:nonzero;"/>
    </g>
    <g transform="matrix(15.0312,0,0,15.0312,834.503,-351.248)">
        <path d="M70.926,51.491C72.471,51.491 73.508,49.903 73.508,48.534L73.508,48.225L73.001,48.225C71.544,48.225 69.228,48.446 69.228,49.991C69.228,50.741 69.801,51.491 70.926,51.491ZM73.133,46.305L73.486,46.305L73.486,46.151C73.486,44.606 72.846,44.01 71.412,44.01C70.905,44.01 69.912,44.143 69.912,44.76L69.912,45.356L67.286,45.356L67.286,44.165C67.286,42.092 70.265,41.848 71.346,41.848C75.185,41.848 76.289,43.768 76.289,46.329L76.289,50.52C76.289,50.829 76.464,51.004 76.774,51.004L77.656,51.004L77.656,53.366L75.119,53.366C74.082,53.366 73.707,52.793 73.707,52.131L73.707,51.645L73.663,51.645C73.685,51.645 72.713,53.631 70.176,53.631C68.168,53.631 66.448,52.374 66.448,50.278C66.448,46.504 71.301,46.305 73.133,46.305Z" style="fill:rgb(241,104,36);fill-rule:nonzero;"/>
    </g>
    <g transform="matrix(15.0312,0,0,15.0312,834.503,-351.248)">
        <path d="M79.822,49.791C79.822,49.791 81.256,51.446 83.198,51.446C84.036,51.446 84.698,51.094 84.698,50.344C84.698,48.754 78.785,48.776 78.785,45.137C78.785,42.885 80.815,41.848 83.131,41.848C84.676,41.848 87.081,42.356 87.081,44.188L87.081,45.356L84.632,45.356L84.632,44.805C84.632,44.276 83.816,44.01 83.198,44.01C82.227,44.01 81.543,44.364 81.543,45.026C81.543,46.791 87.501,46.438 87.501,50.188C87.501,52.307 85.625,53.631 83.175,53.631C80.086,53.631 78.498,51.624 78.498,51.624L79.822,49.791Z" style="fill:rgb(241,104,36);fill-rule:nonzero;"/>
    </g>
    <g transform="matrix(15.0312,0,0,15.0312,834.503,-351.248)">
        <path d="M89.974,44.342L88.517,44.342L88.517,42.114L90.062,42.114L90.062,39.047L92.776,39.047L92.776,42.114L95.335,42.114L95.335,44.342L92.776,44.342L92.776,48.887C92.776,50.741 94.232,51.004 95.027,51.004C95.335,51.004 95.534,50.961 95.534,50.961L95.534,53.411C95.534,53.411 95.181,53.477 94.652,53.477C93.085,53.477 89.974,53.012 89.974,49.241L89.974,44.342Z" style="fill:rgb(241,104,36);fill-rule:nonzero;"/>
    </g>
    <g transform="matrix(15.0312,0,0,15.0312,834.503,-351.248)">
        <path d="M99.463,55.639C100.236,55.639 100.92,55.176 101.317,54.206L101.692,53.344L97.962,44.893C97.808,44.563 97.654,44.497 97.345,44.497L97.014,44.497L97.014,42.114L98.868,42.114C99.662,42.114 100.06,42.401 100.368,43.172L102.553,48.799C102.773,49.374 102.95,50.299 102.95,50.299L102.994,50.299C102.994,50.299 103.171,49.374 103.369,48.799L105.289,43.172C105.531,42.401 106.017,42.114 106.789,42.114L108.687,42.114L108.687,44.497L108.355,44.497C108.047,44.497 107.848,44.563 107.716,44.893L103.7,55.065C102.884,57.094 101.295,58 99.64,58C97.853,58 96.793,56.852 96.793,56.852L97.853,54.866C97.853,54.866 98.537,55.639 99.463,55.639Z" style="fill:rgb(241,104,36);fill-rule:nonzero;"/>
    </g>
</svg>
